HIERARCHY
ROOT pelvis
{
	OFFSET 0.003123 -0.351407 0.012037
	CHANNELS 6 Xposition Yposition Zposition Zrotation Yrotation Xrotation 
	JOINT left_hip
	{
		OFFSET 0.058189 -0.092763 -0.026001
		CHANNELS 3 Zrotation Yrotation Xrotation
		JOINT left_knee
		{
			OFFSET 0.054695 -0.378753 -0.009396
			CHANNELS 3 Zrotation Yrotation Xrotation
			JOINT left_ankle
			{
				OFFSET -0.043453 -0.403059 -0.031876
				CHANNELS 3 Zrotation Yrotation Xrotation
				JOINT left_foot
				{
					OFFSET 0.047257 -0.057997 0.118216
					CHANNELS 3 Zrotation Yrotation Xrotation
					End Site
					{
						OFFSET 0.000000 0.000000 0.000000
					}
				}
			}
		}
	}
	JOINT right_hip
	{
		OFFSET -0.063267 -0.103908 -0.021250
		CHANNELS 3 Zrotation Yrotation Xrotation
		JOINT right_knee
		{
			OFFSET -0.044210 -0.362380 -0.016824
			CHANNELS 3 Zrotation Yrotation Xrotation
			JOINT right_ankle
			{
				OFFSET 0.015417 -0.410728 -0.020192
				CHANNELS 3 Zrotation Yrotation Xrotation
				JOINT right_foot
				{
					OFFSET -0.038812 -0.058328 0.119049
					CHANNELS 3 Zrotation Yrotation Xrotation
					End Site
					{
						OFFSET 0.000000 0.000000 0.000000
					}
				}
			}
		}
	}
	JOINT spine_1
	{
		OFFSET -0.002763 0.109891 -0.027618
		CHANNELS 3 Zrotation Yrotation Xrotation
		JOINT spine_2
		{
			OFFSET 0.009448 0.131853 -0.005940
			CHANNELS 3 Zrotation Yrotation Xrotation
			JOINT spine_3
			{
				OFFSET -0.011330 0.052235 0.028447
				CHANNELS 3 Zrotation Yrotation Xrotation
				JOINT neck
				{
					OFFSET -0.012164 0.165167 -0.031615
					CHANNELS 3 Zrotation Yrotation Xrotation
					JOINT head
					{
						OFFSET 0.024783 0.160452 0.020737
						CHANNELS 3 Zrotation Yrotation Xrotation
						End Site
						{
							OFFSET 0.000000 0.000000 0.000000
						}
					}
				}
				JOINT left_collar
				{
					OFFSET 0.046364 0.084944 -0.007220
					CHANNELS 3 Zrotation Yrotation Xrotation
					JOINT left_shoulder
					{
						OFFSET 0.119239 0.057728 -0.015461
						CHANNELS 3 Zrotation Yrotation Xrotation
						JOINT left_elbow
						{
							OFFSET 0.254123 -0.072151 -0.042459
							CHANNELS 3 Zrotation Yrotation Xrotation
							JOINT left_wrist
							{
								OFFSET 0.251987 0.023221 -0.002472
								CHANNELS 3 Zrotation Yrotation Xrotation
								JOINT left_index_1
								{
									OFFSET 0.101902 -0.008688 0.019351
									CHANNELS 3 Zrotation Yrotation Xrotation
									JOINT left_index_2
									{
										OFFSET 0.030149 -0.011154 0.001151
										CHANNELS 3 Zrotation Yrotation Xrotation
										JOINT left_index_3
										{
											OFFSET 0.006504 -0.021577 -0.002433
											CHANNELS 3 Zrotation Yrotation Xrotation
											End Site
											{
												OFFSET 0.000000 0.000000 0.000000
											}
										}
									}
								}
								JOINT left_middle_1
								{
									OFFSET 0.109398 -0.006328 -0.003981
									CHANNELS 3 Zrotation Yrotation Xrotation
									JOINT left_middle_2
									{
										OFFSET 0.026472 -0.015218 -0.004641
										CHANNELS 3 Zrotation Yrotation Xrotation
										JOINT left_middle_3
										{
											OFFSET 0.005022 -0.023347 -0.001911
											CHANNELS 3 Zrotation Yrotation Xrotation
											End Site
											{
												OFFSET 0.000000 0.000000 0.000000
											}
										}
									}
								}
								JOINT left_pinky_1
								{
									OFFSET 0.084047 -0.014539 -0.043750
									CHANNELS 3 Zrotation Yrotation Xrotation
									JOINT left_pinky_2
									{
										OFFSET 0.012124 -0.014448 -0.005375
										CHANNELS 3 Zrotation Yrotation Xrotation
										JOINT left_pinky_3
										{
											OFFSET 0.003798 -0.018853 0.000167
											CHANNELS 3 Zrotation Yrotation Xrotation
											End Site
											{
												OFFSET 0.000000 0.000000 0.000000
											}
										}
									}
								}
								JOINT left_ring_1
								{
									OFFSET 0.097444 -0.009268 -0.027345
									CHANNELS 3 Zrotation Yrotation Xrotation
									JOINT left_ring_2
									{
										OFFSET 0.023561 -0.016057 -0.001895
										CHANNELS 3 Zrotation Yrotation Xrotation
										JOINT left_ring_3
										{
											OFFSET 0.004257 -0.023548 0.000814
											CHANNELS 3 Zrotation Yrotation Xrotation
											End Site
											{
												OFFSET 0.000000 0.000000 0.000000
											}
										}
									}
								}
								JOINT left_thumb_1
								{
									OFFSET 0.040636 -0.017977 0.025611
									CHANNELS 3 Zrotation Yrotation Xrotation
									JOINT left_thumb_2
									{
										OFFSET 0.021637 -0.017639 0.011623
										CHANNELS 3 Zrotation Yrotation Xrotation
										JOINT left_thumb_3
										{
											OFFSET 0.024002 -0.008356 0.006548
											CHANNELS 3 Zrotation Yrotation Xrotation
											End Site
											{
												OFFSET 0.000000 0.000000 0.000000
											}
										}
									}
								}
							}
						}
					}
				}
				JOINT right_collar
				{
					OFFSET -0.047695 0.084339 -0.013400
					CHANNELS 3 Zrotation Yrotation Xrotation
					JOINT right_shoulder
					{
						OFFSET -0.102578 0.053524 -0.012669
						CHANNELS 3 Zrotation Yrotation Xrotation
						JOINT right_elbow
						{
							OFFSET -0.271150 -0.036492 -0.026467
							CHANNELS 3 Zrotation Yrotation Xrotation
							JOINT right_wrist
							{
								OFFSET -0.249267 -0.004533 -0.015325
								CHANNELS 3 Zrotation Yrotation Xrotation
								JOINT right_index_1
								{
									OFFSET -0.099881 -0.011783 0.019600
									CHANNELS 3 Zrotation Yrotation Xrotation
									JOINT right_index_2
									{
										OFFSET -0.030148 -0.011154 0.001151
										CHANNELS 3 Zrotation Yrotation Xrotation
										JOINT right_index_3
										{
											OFFSET -0.006505 -0.021577 -0.002432
											CHANNELS 3 Zrotation Yrotation Xrotation
											End Site
											{
												OFFSET 0.000000 0.000000 0.000000
											}
										}
									}
								}
								JOINT right_middle_1
								{
									OFFSET -0.107376 -0.009422 -0.003734
									CHANNELS 3 Zrotation Yrotation Xrotation
									JOINT right_middle_2
									{
										OFFSET -0.026472 -0.015218 -0.004641
										CHANNELS 3 Zrotation Yrotation Xrotation
										JOINT right_middle_3
										{
											OFFSET -0.005022 -0.023347 -0.001911
											CHANNELS 3 Zrotation Yrotation Xrotation
											End Site
											{
												OFFSET 0.000000 0.000000 0.000000
											}
										}
									}
								}
								JOINT right_pinky_1
								{
									OFFSET -0.082027 -0.017634 -0.043503
									CHANNELS 3 Zrotation Yrotation Xrotation
									JOINT right_pinky_2
									{
										OFFSET -0.012123 -0.014448 -0.005374
										CHANNELS 3 Zrotation Yrotation Xrotation
										JOINT right_pinky_3
										{
											OFFSET -0.003798 -0.018852 0.000167
											CHANNELS 3 Zrotation Yrotation Xrotation
											End Site
											{
												OFFSET 0.000000 0.000000 0.000000
											}
										}
									}
								}
								JOINT right_ring_1
								{
									OFFSET -0.095423 -0.012362 -0.027099
									CHANNELS 3 Zrotation Yrotation Xrotation
									JOINT right_ring_2
									{
										OFFSET -0.023561 -0.016057 -0.001895
										CHANNELS 3 Zrotation Yrotation Xrotation
										JOINT right_ring_3
										{
											OFFSET -0.004257 -0.023548 0.000816
											CHANNELS 3 Zrotation Yrotation Xrotation
											End Site
											{
												OFFSET 0.000000 0.000000 0.000000
											}
										}
									}
								}
								JOINT right_thumb_1
								{
									OFFSET -0.038613 -0.021074 0.025861
									CHANNELS 3 Zrotation Yrotation Xrotation
									JOINT right_thumb_2
									{
										OFFSET -0.021636 -0.017639 0.011623
										CHANNELS 3 Zrotation Yrotation Xrotation
										JOINT right_thumb_3
										{
											OFFSET -0.024004 -0.008353 0.006547
											CHANNELS 3 Zrotation Yrotation Xrotation
											End Site
											{
												OFFSET 0.000000 0.000000 0.000000
											}
										}
									}
								}
							}
						}
					}
				}
			}
		}
	}
}
MOTION
Frames: 6
Frame Time: 0.050000
0.065512 0.948998 0.005867 1.162058 -9.234691 -12.679017 4.441821 0.831421 6.597926 -2.224119 -0.777832 13.277418 0.228748 2.954410 3.725950 0.000000 0.000000 0.000000 -10.510589 0.475482 5.561595 7.107393 -0.378516 16.281797 -1.068315 -5.012827 4.377084 0.000000 0.000000 0.000000 -0.561947 -0.517710 5.706189 -6.262288 1.748282 -5.153724 9.415267 0.253795 18.507655 1.944327 -0.491350 0.687223 0.000000 0.000000 0.000000 -8.080533 -1.695542 0.605608 -36.556216 -19.003636 -5.574818 124.163673 -49.373138 -66.638306 10.508682 -3.087081 -31.084176 8.100506 3.762506 1.288480 39.600496 -3.286520 -20.489451 0.000000 0.000000 0.000000 4.150598 -14.573476 -7.851406 32.054783 -1.871782 -31.338491 0.000000 0.000000 0.000000 25.304832 -30.032328 -50.873409 22.532990 -0.062765 -0.173202 0.000000 0.000000 0.000000 4.407115 -24.986885 -17.684885 34.072737 2.531940 -19.961553 0.000000 0.000000 0.000000 40.459142 22.978408 5.389461 -23.791085 -13.252269 4.287908 0.000000 0.000000 0.000000 5.819660 5.547194 2.277916 43.173599 27.983780 0.947380 -169.643414 76.127092 -170.329291 3.447052 1.287799 -21.096256 3.513593 -2.608738 0.842996 -3.419191 -2.305396 12.417578 0.000000 0.000000 0.000000 11.228254 7.126521 -4.721056 0.792382 0.188451 -0.475695 0.000000 0.000000 0.000000 -3.255800 14.792509 -21.897964 -0.375365 -1.650969 5.620982 0.000000 0.000000 0.000000 13.003187 10.254562 -5.963067 -7.014743 1.400790 -7.983335 0.000000 0.000000 0.000000 -19.078219 -27.538576 16.083965 12.270086 16.357572 -2.052909 0.000000 0.000000 0.000000 
0.076818 0.957863 0.019066 1.500986 -9.219697 -13.186469 2.583004 0.644505 4.649352 -1.058382 -1.099743 14.113588 2.153338 8.696459 7.955436 0.000000 0.000000 0.000000 -8.732941 0.307503 4.419463 4.344975 0.139473 18.025428 0.972663 -1.301872 4.240959 0.000000 0.000000 0.000000 -4.386401 -0.722926 10.209977 -5.140699 0.193340 -8.465075 10.937171 -0.031576 19.047743 2.112209 -0.169906 -1.596617 0.000000 0.000000 0.000000 -9.202590 0.092592 -0.413082 -38.545360 -28.156900 -5.033196 130.468118 -49.530736 -72.978443 8.892450 -1.120806 -33.467882 3.373061 -1.011548 -0.242807 6.849679 -16.281172 -43.469610 0.000000 0.000000 0.000000 -8.087299 -21.842506 -9.707801 13.324521 -7.438019 -43.437109 0.000000 0.000000 0.000000 15.093749 -30.059501 -45.743381 16.879964 -0.856922 -5.943842 0.000000 0.000000 0.000000 -3.555364 -29.993324 -17.806255 20.312317 -1.535364 -28.286973 0.000000 0.000000 0.000000 28.593967 14.196306 -3.911609 -23.614896 -9.408439 4.616798 0.000000 0.000000 0.000000 9.136182 2.646970 0.065863 43.621145 26.241924 0.525804 145.699390 80.142440 135.217260 17.006965 4.465914 -13.857982 32.810796 -29.161904 3.984528 68.736008 -14.951619 8.545929 0.000000 0.000000 0.000000 49.922051 -9.256949 -3.965317 54.866716 0.997694 -4.478567 0.000000 0.000000 0.000000 23.699082 9.124466 -16.045328 43.971149 1.939951 -4.561647 0.000000 0.000000 0.000000 43.016865 5.871680 -2.469582 50.918359 14.110542 -10.869990 0.000000 0.000000 0.000000 4.509048 -47.439866 50.811953 -76.761992 6.287532 -36.196114 0.000000 0.000000 0.000000 
0.084827 0.951255 0.026985 2.810020 -11.418163 -13.694463 0.979911 0.882610 5.872407 0.266554 -1.136717 11.520852 3.202270 9.406397 5.729255 0.000000 0.000000 0.000000 -8.240917 0.363058 3.351201 -0.786405 1.171013 17.988454 4.093994 4.310262 4.286252 0.000000 0.000000 0.000000 -4.834345 -0.795276 16.311224 -4.987609 -0.517299 -10.371504 8.930714 -2.461229 17.786559 2.408846 0.147524 -4.075551 0.000000 0.000000 0.000000 -8.553483 -4.370364 2.599967 -36.213053 -34.689431 -4.364253 126.872645 -44.314599 -61.360763 14.682510 -0.140995 -32.108995 4.038585 -6.759787 -1.168852 -60.187499 -43.444334 -40.842773 0.000000 0.000000 0.000000 -16.836092 -33.758278 -11.123828 -11.787124 -23.754797 -68.589329 0.000000 0.000000 0.000000 21.573532 -40.191771 -71.703207 15.356269 -0.564996 -5.978798 0.000000 0.000000 0.000000 -3.719152 -47.544733 -28.516969 10.574849 -7.889334 -48.316037 0.000000 0.000000 0.000000 27.127911 13.595254 -4.894176 -24.742511 -6.854175 5.037289 0.000000 0.000000 0.000000 5.631609 2.637325 0.346029 50.431943 23.004378 -0.567379 99.062108 75.815057 78.775650 25.138146 3.561763 1.622335 125.489811 -72.803165 -52.396082 77.120416 33.301971 -29.409819 0.000000 0.000000 0.000000 90.461024 -38.349485 -19.962076 54.850886 21.017014 -30.255249 0.000000 0.000000 0.000000 31.852004 22.006760 -36.759584 57.064793 22.522117 -20.126922 0.000000 0.000000 0.000000 67.234777 3.088616 -7.973365 60.182466 26.205399 -22.389516 0.000000 0.000000 0.000000 0.344630 -55.931397 72.033480 -90.245606 -11.139785 -28.909299 0.000000 0.000000 0.000000 
0.089539 0.949482 0.012466 1.806856 -12.923125 -12.447995 3.675135 0.986218 7.160743 -2.253932 -0.356199 8.259580 3.850959 8.942317 1.951130 0.000000 0.000000 0.000000 -7.798202 0.355878 3.810782 -1.480433 0.919099 13.487373 0.700052 -0.218174 1.946637 0.000000 0.000000 0.000000 -1.751773 -1.034251 15.594945 -4.684911 -0.705620 -10.358296 6.882002 -4.806226 20.211969 2.529843 0.024488 -3.808339 0.000000 0.000000 0.000000 -9.204307 -6.239174 4.143799 -35.174479 -39.783902 -3.940539 128.892503 -41.230349 -58.392176 14.457868 -0.564299 -31.161030 9.483398 -0.082983 0.063995 -19.738142 -43.371302 -59.932287 0.000000 0.000000 0.000000 -6.629962 -29.430553 -12.736117 0.392168 -18.933456 -76.852820 0.000000 0.000000 0.000000 23.744864 -41.650040 -72.743976 22.239288 -0.019505 -5.756279 0.000000 0.000000 0.000000 5.220685 -43.594813 -30.593107 17.442919 -3.473681 -45.498669 0.000000 0.000000 0.000000 32.031837 21.849101 3.220586 -23.524407 -13.530147 3.538799 0.000000 0.000000 0.000000 5.387490 4.019364 0.999457 49.889595 14.836722 -3.790283 87.216923 72.307743 62.762334 8.891045 -1.675443 4.696021 45.207459 -20.611093 1.023881 60.736507 3.727745 -11.702449 0.000000 0.000000 0.000000 55.301385 -1.728152 -9.375862 37.127915 11.552948 -24.511722 0.000000 0.000000 0.000000 12.006827 35.718973 -45.425909 26.980361 2.704482 -5.048766 0.000000 0.000000 0.000000 43.413374 23.702879 -10.245185 28.300611 11.701011 -23.685014 0.000000 0.000000 0.000000 -1.415329 -31.711930 32.910125 -28.261769 13.880697 -17.280507 0.000000 0.000000 0.000000 
0.090481 0.942229 0.011147 1.487340 -15.225240 -13.534951 5.840790 0.928014 6.773020 -5.448364 0.301274 9.480203 6.062048 14.196210 4.970754 0.000000 0.000000 0.000000 -7.684007 0.394369 3.798791 -2.311734 1.175828 14.563808 -0.283116 -1.521763 1.236703 0.000000 0.000000 0.000000 -1.522840 -1.155152 19.529622 -6.094760 -1.242364 -14.032412 6.588157 -5.911687 22.766158 2.696525 0.457750 -6.923493 0.000000 0.000000 0.000000 -4.603666 -7.683290 4.576643 -40.756002 -44.937668 -0.795002 133.207424 -43.246645 -65.079133 16.850377 -0.024630 -29.343233 11.415507 6.131056 2.352568 16.707085 -14.698639 -44.052685 0.000000 0.000000 0.000000 0.332979 -17.857711 -9.188788 0.064924 -16.941620 -64.409217 0.000000 0.000000 0.000000 23.062836 -36.146320 -60.483420 17.916188 -0.260666 -3.664935 0.000000 0.000000 0.000000 3.509735 -33.539551 -23.025794 19.443093 -2.365607 -43.197770 0.000000 0.000000 0.000000 38.285032 24.764786 7.373274 -23.463811 -14.314949 3.715061 0.000000 0.000000 0.000000 8.556246 4.613250 0.385943 48.824242 4.078524 -7.128644 78.417182 69.192346 51.093385 5.182458 -3.269076 15.969333 29.518943 -15.793719 2.338564 46.318479 -3.414006 -7.719541 0.000000 0.000000 0.000000 33.261141 5.400187 -8.313735 45.520530 3.943936 -17.698396 0.000000 0.000000 0.000000 -16.175601 35.655186 -43.109703 33.193306 4.516221 -12.599082 0.000000 0.000000 0.000000 22.692365 22.645192 -11.950624 38.270917 8.433436 -22.448627 0.000000 0.000000 0.000000 -4.125627 -25.388697 25.886027 -4.986911 15.280886 -7.008905 0.000000 0.000000 0.000000 
0.092836 0.945614 0.003227 0.441986 -17.919234 -13.360381 6.221558 1.136656 8.144122 -4.745124 0.236830 9.118867 6.447580 14.218803 2.363619 0.000000 0.000000 0.000000 -4.441393 0.119847 3.079861 -5.887964 1.706413 13.948226 1.375125 0.386553 2.561346 0.000000 0.000000 0.000000 -1.318334 -1.209147 20.948980 -5.802396 -1.260162 -13.152254 6.366757 -6.913554 21.951686 2.587565 0.277443 -5.934976 0.000000 0.000000 0.000000 -4.884014 -9.130783 5.610464 -32.394207 -53.460975 -2.156995 130.845278 -45.452160 -65.368008 18.280989 -1.547183 -30.641152 11.238638 5.576523 2.093102 -8.591778 -30.683446 -53.834727 0.000000 0.000000 0.000000 -2.892057 -23.560997 -11.246803 -3.775984 -17.042471 -63.009434 0.000000 0.000000 0.000000 17.326669 -38.572909 -59.951083 19.731342 -0.005388 -1.539101 0.000000 0.000000 0.000000 -1.718592 -38.609031 -23.646402 20.251577 -1.318633 -35.775939 0.000000 0.000000 0.000000 39.483018 26.190062 8.746256 -25.707229 -14.985895 4.425048 0.000000 0.000000 0.000000 10.213321 3.184966 -1.284634 48.839068 -0.967121 -8.724720 63.545189 65.210554 35.717774 4.029634 -3.551757 18.160245 33.093359 -16.931432 1.573137 35.898071 -14.902944 4.979203 0.000000 0.000000 0.000000 38.438375 -4.374819 -7.355500 49.024878 -2.838998 -9.045927 0.000000 0.000000 0.000000 -0.765918 34.081013 -28.510767 49.267124 10.894828 -20.610058 0.000000 0.000000 0.000000 35.618707 13.191120 -8.070096 46.843599 7.003199 -18.881906 0.000000 0.000000 0.000000 3.466760 -25.559441 25.594514 -12.700619 12.099183 -9.681190 0.000000 0.000000 0.000000 
